<svg width="142" height="35" viewBox="0 0 142 35" fill="none" xmlns="http://www.w3.org/2000/svg">
<path d="M10.3525 34V31.12H16.5925C19.1525 31.12 21.3925 30.576 23.3125 29.488C25.2645 28.4 26.7845 26.848 27.8725 24.832C28.9605 22.784 29.5045 20.384 29.5045 17.632C29.5045 14.848 28.9605 12.448 27.8725 10.432C26.7845 8.416 25.2645 6.848 23.3125 5.728C21.3925 4.608 19.1525 4.048 16.5925 4.048H10.3525V1.264H17.0245C20.6085 1.264 23.7285 1.904 26.3845 3.184C29.0725 4.464 31.1525 6.32 32.6245 8.752C34.1285 11.184 34.8805 14.144 34.8805 17.632C34.8805 21.088 34.1285 24.048 32.6245 26.512C31.1525 28.944 29.0725 30.8 26.3845 32.08C23.7285 33.36 20.6085 34 17.0245 34H10.3525ZM0.7045 34V31.504H5.3125V3.76H0.8005V1.264H10.3525V34H0.7045ZM38.6264 34V31.504H43.2344V3.76H38.7224V1.264H48.2744V34H38.6264ZM48.2744 34V31.12H68.9144V34H48.2744ZM56.6264 22.192C56.6264 20.816 56.3544 19.84 55.8104 19.264C55.2984 18.656 54.4024 18.352 53.1224 18.352H59.3144V26.08H56.6264V22.192ZM48.2744 18.352V15.52H59.3144V18.352H48.2744ZM62.2904 31.12C63.6984 31.12 64.6744 30.832 65.2184 30.256C65.7624 29.648 66.0344 28.592 66.0344 27.088V22.24H68.9144V31.12H62.2904ZM53.1224 15.52C54.4024 15.52 55.2984 15.232 55.8104 14.656C56.3544 14.08 56.6264 13.104 56.6264 11.728V9.04H59.3144V15.52H53.1224ZM48.2744 4.048V1.264H68.5784V4.048H48.2744ZM65.6504 8.176C65.6504 6.672 65.3624 5.616 64.7864 5.008C64.2424 4.368 63.2664 4.048 61.8584 4.048H68.5784V12.592H65.6504V8.176ZM91.4545 34.672C88.1585 34.672 85.2305 34.016 82.6705 32.704C80.1105 31.36 78.0945 29.424 76.6225 26.896C75.1825 24.336 74.4625 21.248 74.4625 17.632C74.4625 14.048 75.1665 10.992 76.5745 8.464C77.9825 5.904 79.9345 3.952 82.4305 2.608C84.9265 1.232 87.7585 0.543999 90.9265 0.543999C93.8385 0.543999 96.3185 1.072 98.3665 2.128C100.415 3.152 101.983 4.576 103.071 6.4C104.159 8.192 104.719 10.304 104.751 12.736H103.407C103.247 11.2 102.751 9.728 101.919 8.32C101.087 6.912 99.8865 5.776 98.3185 4.912C96.7505 4.016 94.7505 3.568 92.3185 3.568C89.8865 3.568 87.7265 4.128 85.8385 5.248C83.9825 6.336 82.5265 7.92 81.4705 10C80.4145 12.048 79.8865 14.464 79.8865 17.248C79.8865 20.064 80.4305 22.496 81.5185 24.544C82.6065 26.56 84.0945 28.128 85.9825 29.248C87.9025 30.336 90.0785 30.88 92.5105 30.88C94.8785 30.88 96.8625 30.448 98.4625 29.584C100.095 28.72 101.343 27.568 102.207 26.128C103.071 24.688 103.567 23.088 103.695 21.328H106.767C106.671 23.76 106.047 26 104.895 28.048C103.775 30.064 102.111 31.68 99.9025 32.896C97.6945 34.08 94.8785 34.672 91.4545 34.672ZM104.751 12.736L103.407 9.76V1.264H106.431V12.736H104.751ZM129.389 34.576C127.053 34.576 124.845 34.192 122.765 33.424C120.685 32.624 118.909 31.408 117.437 29.776C115.997 28.144 115.021 26.064 114.509 23.536H115.997C116.765 25.328 117.773 26.832 119.021 28.048C120.301 29.264 121.773 30.176 123.437 30.784C125.101 31.36 126.893 31.648 128.813 31.648C131.213 31.648 133.053 31.152 134.333 30.16C135.645 29.168 136.301 27.744 136.301 25.888C136.301 24.608 135.949 23.584 135.245 22.816C134.573 22.048 133.645 21.472 132.461 21.088C131.309 20.672 130.045 20.368 128.669 20.176L124.781 19.552C122.509 19.232 120.461 18.704 118.637 17.968C116.813 17.2 115.373 16.16 114.317 14.848C113.261 13.504 112.733 11.808 112.733 9.76C112.733 7.68 113.213 5.968 114.173 4.624C115.165 3.28 116.525 2.288 118.253 1.648C119.981 1.008 121.949 0.688 124.157 0.688C126.365 0.688 128.413 1.04 130.301 1.744C132.221 2.448 133.853 3.584 135.197 5.152C136.573 6.72 137.501 8.768 137.981 11.296H136.637C135.645 8.672 134.077 6.736 131.933 5.488C129.821 4.208 127.453 3.568 124.829 3.568C122.461 3.568 120.621 4.016 119.309 4.912C118.029 5.808 117.389 7.168 117.389 8.992C117.389 10.208 117.709 11.2 118.349 11.968C118.989 12.704 119.853 13.28 120.941 13.696C122.061 14.08 123.293 14.368 124.637 14.56L128.525 15.184C130.925 15.504 133.053 16.032 134.909 16.768C136.797 17.504 138.285 18.528 139.373 19.84C140.493 21.12 141.053 22.832 141.053 24.976C141.053 27.088 140.573 28.864 139.613 30.304C138.653 31.712 137.293 32.784 135.533 33.52C133.805 34.224 131.757 34.576 129.389 34.576ZM112.877 34V23.536H114.509L115.949 26.416V34H112.877ZM137.981 11.296L136.685 8.56V1.264H139.709V11.296H137.981Z" fill="white"/>
</svg>
